<svg id="icon" xmlns="http://www.w3.org/2000/svg" xmlns:xlink="http://www.w3.org/1999/xlink" viewBox="0 0 100 100"><g xmlns="http://www.w3.org/2000/svg"><path d="M73.6,29.6c-0.1-0.1-0.2-0.2-0.3-0.3l0,0c-2-2-3-3-4.9-4.9c-1-1-2.5-1-3.4-0.1c-4,4.1-6,6.1-10,10.2   c-0.9,0.9-0.8,2.6,0.4,3.7c2.3,2.3,3.4,3.4,5.7,5.7c-6.7,7.3-10.2,10.8-17.5,17.5c-2.2-2.2-3.3-3.3-5.5-5.5   c-1.1-1.1-2.7-1.2-3.6-0.3c-4,4.1-6,6.1-10,10.2c-0.9,0.9-0.9,2.4-0.1,3.3c1.8,1.8,2.7,2.7,4.5,4.6c2.7,2.7,7.6,3.1,10.8,0.9   C55.8,63.3,63,56.3,74.5,40.4C76.7,37.3,76.2,32.5,73.6,29.6z" style="fill: inherit;"></path></g></svg>